<?xml version="1.0" encoding="UTF-8" standalone="no"?><!DOCTYPE svg PUBLIC "-//W3C//DTD SVG 1.1//EN" "http://www.w3.org/Graphics/SVG/1.1/DTD/svg11.dtd"><svg width="100%" height="100%" viewBox="0 0 32 32" version="1.1" xmlns="http://www.w3.org/2000/svg" xmlns:xlink="http://www.w3.org/1999/xlink" xml:space="preserve" xmlns:serif="http://www.serif.com/" style="fill-rule:evenodd;clip-rule:evenodd;stroke-linejoin:round;stroke-miterlimit:1.41421;"><rect x="0" y="0" width="32" height="32" style="fill:none;"/><path d="M27.98,2.99c-0.037,0.001 -0.074,0.005 -0.111,0.01l-7.869,0c-0.005,0 -0.01,0 -0.015,0c-0.548,0 -1,0.451 -1,1c0,0.549 0.452,1 1,1c0.005,0 0.01,0 0.015,0l5.585,0l-12.293,12.293c-0.195,0.188 -0.306,0.449 -0.306,0.72c0,0.549 0.451,1.001 1,1.001c0.272,0 0.532,-0.111 0.721,-0.307l12.293,-12.293l0,5.586c0,0.005 -0.001,0.009 -0.001,0.014c0,0.549 0.452,1 1.001,1c0.548,0 1,-0.451 1,-1c0,-0.005 0,-0.009 0,-0.014l0,-7.873c0.006,-0.045 0.009,-0.091 0.009,-0.137c0,-0.549 -0.451,-1 -1,-1c-0.01,0 -0.019,0 -0.029,0l0,0Z" style="fill-rule:nonzero;"/><path d="M14,7c-2.496,0 -4.382,-0.004 -5.885,0.166c-1.503,0.17 -2.706,0.527 -3.566,1.389c-0.861,0.861 -1.214,2.062 -1.383,3.564c-0.169,1.502 -0.166,3.388 -0.166,5.881c0,2.494 -0.002,4.38 0.17,5.883c0.172,1.503 0.534,2.704 1.396,3.564c0.863,0.861 2.064,1.218 3.565,1.387c1.501,0.17 3.383,0.166 5.869,0.166c2.486,0 4.368,0.001 5.869,-0.17c1.501,-0.171 2.704,-0.529 3.566,-1.39c0.862,-0.861 1.221,-2.063 1.393,-3.565c0.172,-1.502 0.172,-3.386 0.172,-5.875c0,-0.005 0,-0.009 0,-0.014c0,-0.549 -0.451,-1 -1,-1c-0.549,0 -1,0.451 -1,1c0,0.005 0,0.009 0,0.014c0,2.487 -0.009,4.343 -0.158,5.649c-0.15,1.306 -0.425,1.982 -0.821,2.377c-0.395,0.394 -1.071,0.669 -2.377,0.818c-1.305,0.149 -3.159,0.156 -5.644,0.156c-2.485,0 -4.339,-0.007 -5.645,-0.154c-1.306,-0.148 -1.982,-0.421 -2.377,-0.815c-0.394,-0.393 -0.67,-1.07 -0.82,-2.377c-0.149,-1.307 -0.158,-3.162 -0.158,-5.654c0,-2.492 0.005,-4.349 0.152,-5.656c0.147,-1.308 0.421,-1.983 0.813,-2.375c0.392,-0.392 1.067,-0.667 2.375,-0.815c1.308,-0.147 3.165,-0.154 5.66,-0.154c0.005,0 0.009,0 0.014,0c0.549,0 1,-0.451 1,-1c0,-0.549 -0.451,-1 -1,-1c-0.005,0 -0.009,0 -0.014,0l0,0Z" style="fill-rule:nonzero;"/></svg>